<svg id="half_star" data-name="half star" xmlns="http://www.w3.org/2000/svg" viewBox="0 0 665.7 816.3"><defs><style>.cls-1{fill:#010101}.cls-2{fill:#d5a129}</style></defs><title>HA-0013M-ShubertAssets-TitleTreatment4-Stack-Alt-Vector-4C</title><path class="cls-1" d="M409.5 429.3H165.4l201.3 148.8-75.3 244.8 206.2-155.5 209.2 155.5-77.1-244.8 201.4-148.8H568.5m-128.7 0h-3.5m95.6 0h-72" transform="translate(-165.4 -6.6)"/><path class="cls-1" d="M592.9 233.1a33.6 33.6 0 0 0-7.1-10.2 83.8 83.8 0 0 1-6.7-6.7c-3.1-3.5-9.2-8.6-13.2-12s-9.1-7.3-14.4-11-6.4-4.8-8.6-7.3l-7-7.9a26.4 26.4 0 0 1-3.3-4.8l-3.6-8.6c-.7-1.7-1-2.1-1-2.6s.4-4.4.6-7.9.7-6.1 1.5-7.5 1-2.8 1.8-4.2a12.4 12.4 0 0 0 1.4-6.5 26.3 26.3 0 0 0-1-5.5c-.5-1.9-1.9-5.3-1.9-6.3s-.4-5.4-1-8.8a20.7 20.7 0 0 0-3.3-8.7c-1.9-2.8-1.9-3.4-2.1-5.5s.3-2.4-.4-4.4-1.2-1.7-2-2.7a6.1 6.1 0 0 1-1.1-3.1c-.3-1.2-.8-1-1.5-2.9s-.3-2.5-.6-5a6.9 6.9 0 0 0-2-4.2c-.4-.5-.2-.7 0-1.1s.9-1.7.3-4.4A36.1 36.1 0 0 0 514 66c-1.2-2.7-1.5-3.6-1.6-4.2s.2-.5.6-1 0-1.2 0-2-.1-1.6-.1-3.2-.3-1.5-.9-3.4a28.9 28.9 0 0 1-.6-5.7 1.7 1.7 0 0 0-1.1-1.5c-.6-.2-1.8 0-2.1-.2s.4-1 .4-1.5a4.4 4.4 0 0 1 1-2.2c.5-.6 1.1-.3 1.8-.7a3.5 3.5 0 0 0 1.1-1.9.6.6 0 0 0-.2-.8l-1.3-.4-1.3-.4c-.4-.1-1.9.7-2.2.5a3.8 3.8 0 0 1-.6-1.1 1.1 1.1 0 0 0-.8-.6c-.2-.1 0-.2.1-.6a27.3 27.3 0 0 0 1.4-4 12.9 12.9 0 0 0 0-4.3c-.1-1.1-.3-1.7-.4-2.2a3.4 3.4 0 0 0-1.3-2.7 2.3 2.3 0 0 0-2.4-.5 6.2 6.2 0 0 0-1.3-1.5 1.5 1.5 0 0 0-1.4 0 2 2 0 0 1-.4-1 2.5 2.5 0 0 0-1.6-1.2c-.9-.2-1.5.3-1.5.1a18.2 18.2 0 0 0 .3-1.8 14.1 14.1 0 0 1 .5-2.2 33.7 33.7 0 0 1 .9-3.9c.5-1.3.8-2.7.5-3.1a1.1 1.1 0 0 0-1.7-.2 6.4 6.4 0 0 0-1.4 2.2c-.3.7-.5 1.6-.7 2.1a20.5 20.5 0 0 0-1 3.1 18.2 18.2 0 0 1-.6 2.2 14.2 14.2 0 0 0-.4 3.2 9.1 9.1 0 0 1-.8 2 21.9 21.9 0 0 0-.8 2.4c-.2.8-1.7 2.9-1.8 3.9a6.7 6.7 0 0 0 1 3.3 28.3 28.3 0 0 1 1.5 3.3 4.8 4.8 0 0 1-.9.5c-.5.4-.2.3-.4.6a6.9 6.9 0 0 1-2.4 1.6 11.4 11.4 0 0 0-2.1.9l-2.9 2.6c-.3.2-.2.3.7 1.3s2 1.8 2.2 2.2-.4.4-.5.8.7.7 1.2 1.1l2.4 1.7a.8.8 0 0 1 .5.8 35.5 35.5 0 0 1 1 3.7 44 44 0 0 1-.1 5.1 2.6 2.6 0 0 0-.4 1.8 1.8 1.8 0 0 0 1 1.6 2.1 2.1 0 0 1 .3 1.1 2.8 2.8 0 0 0 .2 1.3 3.6 3.6 0 0 0 .7.7c0 .2-.1.6-.1 1.3a12 12 0 0 0 .6 2.6 12.8 12.8 0 0 1 .2 2.2 10.8 10.8 0 0 0 .7 3.9c.7 1.5 2.1 3 2.3 3.7s.1 1.9.2 3.7 0 5.1.5 6.7a9.6 9.6 0 0 1 .6 2.8 21.4 21.4 0 0 0-.1 4.7c.3 2.5 1.1 3.1 1.1 3.7s.4 3.3.7 5 .3 1.9.7 3.7.3 2.6.5 3.2a30.1 30.1 0 0 1 .2 4.4c-.1 4.3-.8 6.5-1.1 6.1s.1-2.8.2-3.8-.5-2.7-.9-4l-.8-1.1a1.6 1.6 0 0 0-1.3-.6l-.4-1.3a7 7 0 0 1-.2-1.3c0-.3-.4-.8-.5-1.3a8.3 8.3 0 0 0-.6-2.3 28.1 28.1 0 0 1-.7-3.1 6.9 6.9 0 0 0-2.2-2.3 33.3 33.3 0 0 1-3-1.8 9.6 9.6 0 0 0-2.6-2.1c-1-.4-2.3-.5-3.2-.8a16.6 16.6 0 0 0-4.3-.6c-1.2.1-2.7.6-3.4.7l-2.2.3-2 .7a4 4 0 0 0-1.6 1.1 9.1 9.1 0 0 1-1.3 1.5 3 3 0 0 0-1.1 1.1c-.2.5-.6 1.7-.9 2.1a3.6 3.6 0 0 1-.8.8 3.1 3.1 0 0 0-.7.9 4.2 4.2 0 0 0-.3 1.4 5.9 5.9 0 0 0-.3 1.9c.1.8 0 1.7 0 3.6a19.1 19.1 0 0 0 1.5 6.8 30.2 30.2 0 0 1 1.8 4.9 86 86 0 0 0 3.8 8.4l1.8 2.9 3.3 4.9a.9.9 0 0 1 .3.7 8.8 8.8 0 0 0 .1 1.5c.1.5.2 1.1-.1 1.1l-1.5-.6c-.6-.2-1 .3-1.8.7a16.2 16.2 0 0 0-3 2.6 2.5 2.5 0 0 0-.5 2v4.2a2 2 0 0 1-.8.9l-1.8 1.9a9.2 9.2 0 0 0-2.3 3.7c-.3 1.5.6 3.7.8 4.3a5.2 5.2 0 0 1-.3 2.5c-.2.8-1.1 2.9-1.7 4.7s-1.5 6-1.8 7.2-1.2 6.5-1.3 8.2a58.7 58.7 0 0 0 .7 9.6c.2 1.8 2.4 8.5 3.1 11.1s2.1 7.2 2.6 8.6 2 5.2 2.8 7.5 3.8 9.7 2.9 12.2a12.7 12.7 0 0 0-.5 2.5c0 .3-.4 1.9-.5 2.4s-.1 1.8-.2 2.5-2 4.6-2.3 5.9a24.1 24.1 0 0 0-.4 2.9 1.6 1.6 0 0 0 .7-.1.3.3 0 0 1 .2.5l-1.5 2.4a5.2 5.2 0 0 0-.8 2.3 6 6 0 0 0 .4 2.6 18.3 18.3 0 0 0 1.1 2.4 2.3 2.3 0 0 1 0 1c0 .2.5 1.1.6 1.4a1.6 1.6 0 0 1 0 .7c0 .1-.4.7-.5 1s-.2 1.3-.3 1.7a21.2 21.2 0 0 0-.4 2.2c-.1.4-.6 1.6-.9 2.5s-1.6 4.5-1.8 5a1.4 1.4 0 0 1-.6.9 6.9 6.9 0 0 0-.9 1.6 2.6 2.6 0 0 0-.1 1.6 2.3 2.3 0 0 1 0 1.1l-1.1 3.8c-.5 1.6-1.3 5.6-1.6 7.4s-.8 4.8-1 5.9 0 3.4 0 4.2-.1 2-.1 2.6a17.9 17.9 0 0 0 0 2.6 3.9 3.9 0 0 1-.1 1.8 23.3 23.3 0 0 0-.7 2.9 2.9 2.9 0 0 0 .1 1.7 4.2 4.2 0 0 1 .2 1.8 2.7 2.7 0 0 1-.7 1.3c-.5.6-1.3 1.4-1.6 1.8a5.8 5.8 0 0 0-.3 2.3v2.6a2.5 2.5 0 0 1-.1 1.2 25.4 25.4 0 0 0-1.5 3.4 7.7 7.7 0 0 1-.7 3.1 4.7 4.7 0 0 0-.7 2.8c0 .8.9 1.5.9 1.8a3.8 3.8 0 0 0-.2 1.2 17 17 0 0 0 .7 2.6.5.5 0 0 1-.1.5h-1.4c-.6 0-.9.1-1 .4s-.1 2-.2 2.5-1.5 8.2-1.8 9.9-1.4 7.6-1.8 8.9-.6 5-.8 7-1.1 8-1.4 9.7-1.1 6.4-1.3 8.3-.4 4.2-.6 5.3-1.2 3.5-1.6 5.1a39.3 39.3 0 0 0-.7 5.3c-.1 1.5-.4 3.7-.6 5a23 23 0 0 1-1.3 4.3 21.7 21.7 0 0 1-3.3 4.8 23.1 23.1 0 0 1-4.6 3.6 11.9 11.9 0 0 1-3.8 1.2l-3.3.9a11.2 11.2 0 0 0-3.7 1.6 3.5 3.5 0 0 0-1.1 2.8 1.5 1.5 0 0 1 0 1.3 1 1 0 0 0-.1 1c.1.4 1 .8 3.5 1.3s6.3.3 9.6.4a39.6 39.6 0 0 0 9.5-.7 13.3 13.3 0 0 0 4.5-2.4c.3-.1.1 1.1.1 1.3s0 1.2.4 1.3 7.6.3 11.3.2 5.6-.6 6-.8.2-1.4.2-2.1a22.8 22.8 0 0 0-.2-3.3 5.2 5.2 0 0 1-.4-.6 4.2 4.2 0 0 0 .5-1.6c0-.9-.5-6.5-.7-8.4s-.2-3.1-.4-4.8-1.4-1.7-1.4-2.1a13.1 13.1 0 0 1 .3-2.3c.2-1.1.7-1 1.4-2.4a24.2 24.2 0 0 0 1.5-5.3c.4-1.7 4-13.6 4.6-15.6s2.8-12.8 2.9-14 2.3-12.3 2.6-14.3.9-7.6.7-7.9-.8-.2-.8-.5a2 2 0 0 1 .2-1.3h2.2c.5 0 .2-.8.3-1.6s.6-3.2.6-3.7.4-.5.8-1 .7-1 1.2-1.5a6.6 6.6 0 0 0 1.4-2.8c0-.8-.6-2.2-.4-2.5a40.5 40.5 0 0 0 4.4-6.2 18.9 18.9 0 0 0 1.7-6.4l1.2-1.5a19.1 19.1 0 0 0 1.7-3.2 38.3 38.3 0 0 1 4-5.2c1.3-1.6 4.8-6.6 5.5-7.9s1.3-2.6 1.5-2.6 1.5 2.5 2 3.2l1.7 2.6c.4.7 1.9 4.5 2.3 5.5s3 8.5 3.7 9.9 3.8 7.5 4.3 8.1a7.8 7.8 0 0 1 1 1.3 5.8 5.8 0 0 0 .8 2.2 7.4 7.4 0 0 1 1 1.8 2.4 2.4 0 0 0 1.3 1c.5.3.2.3.4.7s1 4.3 1.7 4.7a12.6 12.6 0 0 0 2.4.5c.7.2.8.1.9.6a5.8 5.8 0 0 0 .6 1.5 20.4 20.4 0 0 1 1.1 2.3c.2.5-.2.3-.3.5a.9.9 0 0 0 .5.8 45.6 45.6 0 0 1 1.8 5.1c.3 1.1 4.2 13.9 4.2 14.4a6.2 6.2 0 0 0 .1 1.7l.5 1.4c.1.4 1.4 5.9 1.9 7.5s2 10.2 2.4 12.3 1 6.2 1.3 9.7a7.2 7.2 0 0 0 1.9 4.8 3 3 0 0 1-.5 1.1 11.7 11.7 0 0 0-1.7 3.9c-.2 1.7 1.1 3.1 1.1 4s-.3.7-.7 1.5.1 1.3-.2 2.2a14.9 14.9 0 0 1-2.8 3.7 61.3 61.3 0 0 1-4 4.6c-1.4 1.3-1.4.9-2.6 1.5a3.7 3.7 0 0 0-1.9 2.4 2.6 2.6 0 0 0 .2 2 1.7 1.7 0 0 1-.1 1.1 1.6 1.6 0 0 0 .6 1.4 4.3 4.3 0 0 0 1.9.3l15.4-.3 11.3-.2 2.7-.3c.8-.2.4-.2.4-.6s.2-3.6.1-4.8-.1-.7 0-1.2.2-1-.2-3.4a43.1 43.1 0 0 0-.9-5.5c-.4-1.2-1.4-3-1.4-4s.4-1.2.4-2a27.7 27.7 0 0 0-.5-2.9c-.1-.8-.4-4.8-.5-7s-1.1-10.3-1.3-12.5-1.3-13.9-1.7-17.5-.8-8.5-1.3-12.9-2.3-14.8-2.3-15.8.1-1.2-.5-1.3-3 .2-3.2 0a27.6 27.6 0 0 1-2.2-3.9 1.1 1.1 0 0 1 .4-.7c.2-.3-.2-.6.1-.8s.6-.3.5-.7-.4-1.8-.6-2.5a10.6 10.6 0 0 1-.6-2.5 20.6 20.6 0 0 0-.9-3.6c-.5-1.6-1.2-1.6-1.8-3s-.4-2.6-.6-4.7a12.9 12.9 0 0 0-1.4-4.6 15.4 15.4 0 0 0-1.4-2.2c-.8-1.2-.4-1.5-.4-2.5s0-2.8-.2-3.6-.3-1.7 0-2.1 4.1-2.5 6.6-4.1 5.4-3.9 6.8-5 2.8-2.8 3.3-3.2a1.6 1.6 0 0 1 1.1-.4c.6-.1 1.2-.6 2.9-1.7a40.1 40.1 0 0 0 4.4-3.2c.5-.6-.2-.5 0-1a2 2 0 0 1 .9-.7c.6-.4 5.2-4.2 6.2-5.3s2.8-3.5 2.9-5.2-.4-5.2-.6-7.9-1.1-11.7-1.3-13.3-.5-2.4-.1-2.6 1.4-.2 4.2-.3 6.8-.4 10.3-.8a19.7 19.7 0 0 0 6.6-1.8c1.8-.7 2.4-1.2 2.2-2s-1.8-4.7-3.8-9.4z" transform="translate(-165.4 -6.6)"/><path class="cls-2" d="M489.8 154.7a2 2 0 1 0-2 2 2 2 0 0 0 2-2zm1.2 13.5a2.1 2.1 0 1 0 2.1 2.1 2.1 2.1 0 0 0-2.1-2.1zm4.2 16.4a2.1 2.1 0 1 0 2.1 2.1 2.1 2.1 0 0 0-2.1-2z" transform="translate(-165.4 -6.6)" id="Buttons_Clipping_Path" data-name="Buttons Clipping Path"/></svg>